<svg id="FLT_ART_WORKS" data-name="FLT ART WORKS" xmlns="http://www.w3.org/2000/svg" viewBox="0 0 200 90"><defs><style>.cls-1{fill:#fff;}.cls-2{fill:#e2e0e2;}.cls-3{fill:#282828;}.cls-4{fill:#00b624;}.cls-5{fill:none;stroke:#00b624;stroke-miterlimit:10;stroke-width:2px;}</style></defs><title>advisorGenderNeutral_wealth_smp_200x90</title><path class="cls-1" d="M138.53,82.46v0c-2.26-17.6-11.48-27.36-26.67-28.22l-3.73-.37h0l0-.59c-2.51,1-13.63.94-16.11,0l0,.58-3.65.37c-15.2.86-24.42,10.62-26.67,28.21,0,0,0,0,0,0,0,.22-.17,1.56-.17,1.56H138.7S138.56,82.68,138.53,82.46Z"/><path class="cls-2" d="M100.08,51.68h-.22A22.21,22.21,0,0,1,92,50.16l0,4.18s.92,6.37,8.26,6.43c6.38,0,7.89-6.29,7.89-6.29l0-4.31A22.25,22.25,0,0,1,100.08,51.68Z"/><circle class="cls-2" cx="100" cy="29.23" r="20.46"/><circle class="cls-3" cx="92.78" cy="33.04" r="2.06"/><circle class="cls-3" cx="107.22" cy="33.18" r="2.06"/><polygon class="cls-4" points="118.02 70.5 114.74 54.93 108.03 53.25 99.95 60.23 91.86 53.25 85.15 54.93 81.88 70.5 99.95 61.1 118.02 70.5"/><line class="cls-5" x1="99.89" y1="60.19" x2="99.89" y2="83.94"/><path class="cls-3" d="M88.64,54.1l-.43,0C73,55,63.72,64.78,61.47,82.44c0,.22-.17,1.56-.17,1.56H96.45Z"/><path class="cls-3" d="M111.36,54.1l.43,0C127,55,136.28,64.78,138.53,82.44c0,.22.17,1.56.17,1.56H103.55Z"/><rect class="cls-1" x="115.59" y="71.82" width="10" height="2"/><path class="cls-3" d="M110.67,7.16C109.12,5.1,98.74-.67,86.79,5.72,79.54,9.6,76.38,15.85,76.38,23.61a18.28,18.28,0,0,0,3.86,10.93s2.06-4.24,11-7.18a28.15,28.15,0,0,0,12.11-7.48,26.11,26.11,0,0,1-2,4,17.34,17.34,0,0,1-2,2.42s5.09-.53,7.9-2.11c4.5-2.54,4.53-3.8,4.53-3.8a26.89,26.89,0,0,0,2.45,7.05,18.44,18.44,0,0,0,5.88,6.22s3.06-7,2.68-12.2C122.17,13.3,116.62,7.1,110.67,7.16Z"/></svg>