<svg xmlns="http://www.w3.org/2000/svg" viewBox="0 0 200 90"><title>bestMobileApp</title><g id="LINE_ART_STROKE" data-name="LINE ART / STROKE"><path d="M156,28.08l-5.62-9.31-.06.07v-.17H98.59v.15l0-.05-5.62,9.31,15,20a17.71,17.71,0,0,0-1.49,7.13,17.88,17.88,0,1,0,35.75,0,17.7,17.7,0,0,0-1.42-7Zm-7.9-6.41-3.53,4.5H104.35l-3.53-4.5Zm-5.89,7.5L133.66,40a17.7,17.7,0,0,0-18.5-.08l-8.45-10.75ZM96.53,27.89,98.87,24l13.85,17.64a18,18,0,0,0-3.17,3.53Zm27.81,42.22a14.88,14.88,0,1,1,14.88-14.88A14.89,14.89,0,0,1,124.34,70.11Zm11.74-28.33L150,24l2.34,3.85L139.23,45.35A17.85,17.85,0,0,0,136.08,41.78Z" style="fill:#1a5336"/><path d="M83.23,6.28H49a3.5,3.5,0,0,0-3.5,3.5V80.46A3.5,3.5,0,0,0,49,84H83.23a3.5,3.5,0,0,0,3.5-3.5V9.78A3.5,3.5,0,0,0,83.23,6.28ZM49,9.28H83.23a.51.51,0,0,1,.5.5v3.06H48.47V9.78A.51.51,0,0,1,49,9.28Zm34.76,6.56V69.72H48.47V15.84ZM83.23,81H49a.5.5,0,0,1-.5-.5V72.72H83.73v7.74A.5.5,0,0,1,83.23,81Z" style="fill:#1b5336"/><rect x="61.35" y="75.8" width="9.51" height="2.8" style="fill:#1b5336"/><polygon points="133.75 52.76 127.2 51.86 124.35 45.98 121.47 51.87 114.94 52.75 119.62 57.32 118.56 63.77 121.22 62.38 124.34 60.76 130.14 63.78 129.05 57.33 133.75 52.76" style="fill:#1a5336"/><path d="M54.71,32.58V53H77.49V32.58Zm15,16H64.36V39H67v7.86h2.56c1.77,0,2.51-1.23,2.51-4.38s-.84-4.1-2.64-4.1H63.62V48.54H61V38.37H57.11v-1.7H70.28c3.18,0,4.69,1.65,4.69,5.77C75,47.88,72.72,48.54,69.67,48.54Z" style="fill:#00b624"/></g></svg>