<svg xmlns="http://www.w3.org/2000/svg" viewBox="0 0 200 90"><defs><style>.cls-1{fill:#00b624;}.cls-2{fill:#1a5336;}</style></defs><title>bestWorkplace_1</title><g id="FLT_ART_WORKS" data-name="FLT ART WORKS"><rect class="cls-1" x="143.88" y="33.71" width="18.52" height="11.48" transform="matrix(0.85, -0.53, 0.53, 0.85, 2.58, 87.82)"/><path class="cls-2" d="M136.19,38.12l9.05,14.35,20.63-13L156.81,25.1l-5.95,3.76L148.39,25l-1.74,1.1a3.91,3.91,0,0,0-.42-1.09,4.17,4.17,0,0,0-5.7-1.5l-10.72,6.33H119.06l-7.72-7.72a4.52,4.52,0,0,0-5.42-.95,3.88,3.88,0,0,0-.78.67,4.43,4.43,0,0,0-.59.48l-8,8H85.74l-8-8a3.79,3.79,0,0,0-1-.73,3.16,3.16,0,0,0-.53-.42,4.45,4.45,0,0,0-5.41.95l-7.72,7.72H52.27L40.59,23.49a4.15,4.15,0,1,0-4.13,7.2L48.21,37.1v18l-4,17.18,0,.34a4.49,4.49,0,0,0,3.55,4.46A4.42,4.42,0,0,0,53.06,73l4-16.3,0-.34c0-.45.4-.45.58-.45a.43.43,0,0,1,.46.44V72.64a4.49,4.49,0,0,0,3.54,4.46,4.38,4.38,0,0,0,.88.09A4.42,4.42,0,0,0,67,72.77V37.38l8.63-8.62,8.2,8.2V73.12a3.5,3.5,0,0,0,2.74,3.49,3.08,3.08,0,0,0,.68.07,3.44,3.44,0,0,0,3.43-3.43V55.78c0-1.05.2-1.49.67-1.5a.85.85,0,0,1,.63.17c.25.25.23.81.22,1.15v.25l2,17.27a3.5,3.5,0,0,0,2.74,3.49A3.43,3.43,0,0,0,101,73.2L99,54.78V36.46l7.63-7.63,8.56,8.55V72.77a4.42,4.42,0,0,0,5.31,4.33A4.49,4.49,0,0,0,124,72.64V56.32a.43.43,0,0,1,.48-.45.44.44,0,0,1,.55.44l4,16.65a4.43,4.43,0,0,0,4.42,4.23,4.31,4.31,0,0,0,.88-.09,4.49,4.49,0,0,0,3.55-4.46l-4-17.52V37l7.44-4.39,1,1.57ZM64,36.14V72.77a1.42,1.42,0,0,1-.53,1.1,1.38,1.38,0,0,1-1.19.29,1.51,1.51,0,0,1-1.13-1.52V56.31A3.73,3.73,0,0,0,60,53.78a3.28,3.28,0,0,0-2.42-.91,3.45,3.45,0,0,0-3.52,3.23l-4,16.31,0,.36a1.44,1.44,0,0,1-.52,1.1,1.42,1.42,0,0,1-1.2.29,1.51,1.51,0,0,1-1.12-1.38l4-17.15,0-20.31h0v0L37.93,28.07a1.12,1.12,0,0,1-.54-.7,1.14,1.14,0,0,1,.11-.87,1.17,1.17,0,0,1,1.63-.39l12.35,6.71v0H64.32l8-8a3.82,3.82,0,0,0,1,1.74l.1.11Zm91.93-6.9,5.85,9.28-15.55,9.81-5.85-9.27Zm-7.58,1.24-3.41,2.15-.84-1.35,3.4-2.15Zm-17.38,4.84v20l4,17.48a1.51,1.51,0,0,1-1.12,1.38,1.41,1.41,0,0,1-1.2-.29,1.45,1.45,0,0,1-.53-1.1l-4-16.67a3.45,3.45,0,0,0-3.47-3.23h0a3.2,3.2,0,0,0-2.47.91A3.68,3.68,0,0,0,121,56.31V72.64a1.53,1.53,0,0,1-1.13,1.52,1.42,1.42,0,0,1-1.2-.29,1.44,1.44,0,0,1-.52-1.1V36.14l-9.44-9.43.18-.18a3.86,3.86,0,0,0,1-1.62l7.92,7.92h12.85v0h0L142,26.09a1.16,1.16,0,0,1,1.59.41,1.1,1.1,0,0,1,.12.87,1.15,1.15,0,0,1-.55.71Z"/><path class="cls-2" d="M120,27.71a7.54,7.54,0,1,0-2.78-5.85A7.52,7.52,0,0,0,120,27.71Zm4.77-10.39a4.55,4.55,0,1,1,0,9.09,4.54,4.54,0,0,1-4.55-4.55A4.55,4.55,0,0,1,124.81,17.32Z"/><path class="cls-2" d="M91.14,28.47a6.59,6.59,0,1,0-6.58-6.58A6.54,6.54,0,0,0,91.14,28.47Z"/><path class="cls-2" d="M57.33,29.41a7.55,7.55,0,1,0-7.55-7.55A7.54,7.54,0,0,0,57.33,29.41Zm0-12.09a4.54,4.54,0,0,1,2.87,8.07,4.48,4.48,0,0,1-2.87,1,4.55,4.55,0,1,1,0-9.09Z"/></g></svg>