<svg id="LINEART" xmlns="http://www.w3.org/2000/svg" viewBox="0 0 320 180"><defs><style>.cls-1{fill:#fff;}.cls-2{fill:#1a5336;}.cls-3,.cls-4,.cls-6{fill:none;stroke-miterlimit:10;stroke-width:3.5px;}.cls-3{stroke:#1a5436;}.cls-4,.cls-6{stroke:#1a5336;}.cls-4{stroke-linecap:square;}.cls-5{fill:#00b624;}</style></defs><g id="Group_486" data-name="Group 486"><g id="Group_483" data-name="Group 483"><path id="Path_564" data-name="Path 564" class="cls-1" d="M260.36,26.84H151.44v75.3l-9.27,6.56a8.87,8.87,0,0,0-11.46-.9,24.24,24.24,0,0,0-4.52,4.18,23.35,23.35,0,0,1-4.76,3.69l-4.73,2c-2.71,1.15-5.91,2.52-7.86,3.33-.2-4.68-2.64-12.64-5.07-18.67-2.24-5.7-5.32-13.52-11.83-13.52H91.8V82.23a23.25,23.25,0,0,0,12.57-30.4,24.5,24.5,0,0,0-1.11-2.31,15.38,15.38,0,0,0,.86-7.3c-5.47.91-6.84-.1-11.27-2.56A24.3,24.3,0,0,0,80.6,36.34c-15.2,0-22.18,14.9-22.18,22.06,0,0-1.34,12.09,7.69,18.47a23.13,23.13,0,0,0,8.47,5.61v6.33h-1a11.83,11.83,0,0,0-8.92,5.06,25.29,25.29,0,0,0-5.11,15.82l.62,44.36,49.06-.5,0-1.76c0-.13-.1-6.77-.19-13.88,1.72-.89,7.28-3.6,12.68-6.23,8.24-4,16.77-8.15,18.51-9.14a8.76,8.76,0,0,0,3.86-10.91l7.35-5.2v19.33h26.35l-9.92,27.45,3.29,1.19,10.35-28.64h22.64v25h3.5v-25h22.64l10.35,28.64,3.29-1.19L234,125.77h26.35Z"/></g><g id="Group_485" data-name="Group 485"><g id="FLT_ART_WORKS" data-name="FLT ART WORKS"><rect id="Rectangle_391" data-name="Rectangle 391" class="cls-2" x="153.19" y="28.59" width="105.83" height="17.69"/><rect id="Rectangle_392" data-name="Rectangle 392" class="cls-3" x="153.19" y="28.59" width="105.43" height="95.43"/><line id="Line_198" data-name="Line 198" class="cls-3" x1="169.52" y1="153.81" x2="180.4" y2="123.7"/><line id="Line_199" data-name="Line 199" class="cls-3" x1="242.29" y1="153.81" x2="231.4" y2="123.7"/><line id="Line_200" data-name="Line 200" class="cls-3" x1="205.9" y1="123.7" x2="205.9" y2="150.81"/><line id="Line_201" data-name="Line 201" class="cls-3" x1="153.19" y1="46.28" x2="258.61" y2="46.28"/><path id="Path_565" data-name="Path 565" class="cls-1" d="M186.44,37.35a3.15,3.15,0,1,1-3.13-3.16,3.14,3.14,0,0,1,3.13,3.16Z"/><path id="Path_566" data-name="Path 566" class="cls-1" d="M231.69,37.35a3.17,3.17,0,1,1-3.17-3.16h0a3.15,3.15,0,0,1,3.15,3.15Z"/><line id="Line_202" data-name="Line 202" class="cls-4" x1="141.79" y1="111.12" x2="161.66" y2="97.04"/><path id="Path_567" data-name="Path 567" class="cls-1" d="M107.11,121.6c0-4.36-2.58-12.7-5-18.63-2.48-6.31-5.23-12.4-10.2-12.4H73.73a10.2,10.2,0,0,0-7.66,4.37,23.49,23.49,0,0,0-4.75,14.74l.6,42.61,45.56-.46S107.11,126.9,107.11,121.6Z"/><path id="Path_568" data-name="Path 568" class="cls-5" d="M75.81,94.87a7.64,7.64,0,0,0-5.7,3.3,21.16,21.16,0,0,0-4.32,13.27l.56,40.16,40.6-.41c-.1-6.46-.33-23.51-.33-27.77,0-3.81-2.41-11.79-4.79-17.7-2.17-5.5-4.55-10.85-7.9-10.85Z"/><path id="Path_569" data-name="Path 569" class="cls-6" d="M107.11,121.6c0-4.36-2.58-12.7-5-18.63-2.48-6.31-5.23-12.4-10.2-12.4H73.73a10.2,10.2,0,0,0-7.66,4.37,23.49,23.49,0,0,0-4.75,14.74l.6,42.61,45.56-.46S107.11,126.9,107.11,121.6Z"/><path id="Path_570" data-name="Path 570" class="cls-6" d="M76.33,81.49v9H90.05V81.27"/><path id="Path_571" data-name="Path 571" class="cls-6" d="M61.34,60.74A21.53,21.53,0,1,0,82.87,39.21h0A21.53,21.53,0,0,0,61.34,60.74Z"/><path id="Path_572" data-name="Path 572" class="cls-2" d="M81.92,58.37c-.1-1.66,0-8.48,0-8.48s6.15,7.45,17.77,3.78c4.79-2.27,4.77-9.94,4.43-11.45-5.47.91-6.84-.1-11.27-2.56A24.3,24.3,0,0,0,80.6,36.34c-15.2,0-22.18,14.9-22.18,22.06,0,0-2,17.59,14.68,21.53L72.72,58.4Z"/><path id="Path_573" data-name="Path 573" class="cls-1" d="M90.07,110.77S101.28,121,102.74,122a5.15,5.15,0,0,0,5.17,1.25c2.18-.83,13-5.49,14.29-6a24.65,24.65,0,0,0,5.28-4.09,22.85,22.85,0,0,1,4.24-3.92,7,7,0,1,1,8.41,11.3,6.58,6.58,0,0,1-.76.49c-3.1,1.76-29.69,14.49-31.66,15.62a10.31,10.31,0,0,1-9.52.41c-3.58-1.89-19.08-15.38-19.08-15.38Z"/><path id="Path_574" data-name="Path 574" class="cls-6" d="M90.07,110.77S101.28,121,102.74,122a5.15,5.15,0,0,0,5.17,1.25c2.18-.83,13-5.49,14.29-6a24.65,24.65,0,0,0,5.28-4.09,22.85,22.85,0,0,1,4.24-3.92,7,7,0,1,1,8.41,11.3,6.58,6.58,0,0,1-.76.49c-3.1,1.76-29.69,14.49-31.66,15.62a10.31,10.31,0,0,1-9.52.41c-3.58-1.89-19.08-15.38-19.08-15.38Z"/><line id="Line_203" data-name="Line 203" class="cls-6" x1="91.28" y1="111.66" x2="84.52" y2="105.45"/><circle id="Ellipse_42" data-name="Ellipse 42" class="cls-2" cx="95.26" cy="60.87" r="2.62"/></g><g id="Group_484" data-name="Group 484"><path id="Path_575" data-name="Path 575" class="cls-2" d="M197.59,70.56h16.77L227,92.42A11.13,11.13,0,0,1,228,97v7.88a5.39,5.39,0,0,1-5.39,5.38H189.1a5.38,5.38,0,0,1-5.38-5.38h0V97a11.12,11.12,0,0,1,1-4.58l12.69-21.86h16.77"/><path id="Path_576" data-name="Path 576" class="cls-1" d="M208.05,94.15c0,.95-.75,1.62-2.1,1.62-1.93,0-2.48-1-2.6-2.12h-4.42c.12,3.1,1.92,4.95,5.44,5.36v2.44h2.71V99c3.48-.4,5.44-2.64,5.44-5.34,0-3.6-2.35-4.58-6.25-5.08-2-.26-2.53-.67-2.53-1.58s.64-1.39,1.87-1.39a1.88,1.88,0,0,1,2.13,1.6s0,.1,0,.16h4.31c-.26-3-2-4.64-5-5v-2.5h-2.71v2.51c-3.12.42-5,2.4-5,5,0,3.4,1.8,4.65,6.16,5.18C207.44,92.85,208.05,93.26,208.05,94.15Z"/><path id="Path_579" data-name="Path 579" class="cls-2" d="M191.83,58.65l5.83,8.75H214.3l5.84-8.75Z"/></g></g></g></svg>