<?xml version="1.0" encoding="UTF-8"?><svg xmlns="http://www.w3.org/2000/svg" viewBox="0 0 200 90"><defs><style>.e{fill:none;stroke:#1a5336;stroke-miterlimit:10;stroke-width:3px;}.f{fill:#00b624;}.g{fill:#fff;}.h{fill:#1a5336;}</style></defs><g id="a"/><g id="b"><g id="c"><rect class="g" x="8.24" y="19.54" width="83.68" height="42.77"/><rect class="e" x="8.24" y="19.54" width="83.68" height="42.77"/><rect class="g" x="15.24" y="26.54" width="83.68" height="42.77"/><rect class="e" x="15.24" y="26.54" width="83.68" height="42.77"/><path class="f" d="M67.4,49.56c-.02,5.26-4.3,9.5-9.56,9.48-5.26-.02-9.5-4.3-9.48-9.56,.02-5.25,4.29-9.49,9.54-9.48,5.26,.02,9.52,4.3,9.5,9.56h0Z"/><path class="e" d="M45.81,48.45c0-5.94,4.81-10.75,10.75-10.75s10.75,4.81,10.75,10.75-4.81,10.75-10.75,10.75-10.75-4.81-10.75-10.75h0Z"/><path class="h" d="M58.13,50.81c0,.65-.51,1.1-1.42,1.1-1.31,0-1.68-.65-1.76-1.43h-3c.09,2.09,1.31,3.35,3.69,3.63v1.65h1.83v-1.65c2.36-.28,3.69-1.79,3.69-3.62,0-2.44-1.59-3.1-4.23-3.44-1.38-.17-1.72-.45-1.72-1.07s.44-.94,1.27-.94c.69-.1,1.34,.38,1.44,1.08,0,.04,0,.08,.01,.11h2.92c-.03-1.86-1.54-3.36-3.4-3.39v-1.69h-1.83v1.7c-2.12,.29-3.4,1.62-3.4,3.39,0,2.31,1.22,3.15,4.17,3.51,1.32,.18,1.74,.46,1.74,1.06Z"/><path class="e" d="M83.98,31.93v-.39H30.16v.39c0,5.49-4.45,9.94-9.94,9.94h0v12.5c5.49,0,9.94,4.45,9.94,9.94h53.8c0-5.49,4.45-9.94,9.94-9.94h0v-12.5c-5.48-.01-9.92-4.46-9.92-9.94Z"/><g><g><path class="h" d="M123.21,49.95h3.44c.13,.92,.5,1.53,1.72,1.53,1.09,0,1.59-.81,1.59-1.87,0-1.18-.65-1.88-1.79-1.88-1.07,0-1.74,.42-2.18,.94h-2.25l.28-7.78h8.91v2.77h-6.17l-.07,2.92c.5-.72,1.44-1.4,3.09-1.4,2.42,0,4.01,1.63,4.01,4.49s-2.01,4.66-5.36,4.66c-3.51,0-5.1-1.9-5.19-4.38Z"/><path class="h" d="M134.96,47.79v-.55c0-4.18,2.61-6.52,6.1-6.52s6.1,2.16,6.1,6.45v.52c0,4.19-2.4,6.65-6.17,6.65s-6.02-2.38-6.02-6.54Zm8.41-.04v-.54c0-2.42-.7-3.64-2.31-3.64s-2.31,1.2-2.31,3.64v.55c0,2.46,.72,3.62,2.35,3.62s2.27-1.2,2.27-3.64Z"/><path class="h" d="M148.92,56.88v-1.46c.79-.11,1.22-.57,1.26-1.31h-1.26v-3.1h3.31v2.55c0,2-1.15,3.25-3.31,3.33Z"/><path class="h" d="M154,47.79v-.55c0-4.18,2.61-6.52,6.1-6.52s6.1,2.16,6.1,6.45v.52c0,4.19-2.4,6.65-6.17,6.65s-6.02-2.38-6.02-6.54Zm8.41-.04v-.54c0-2.42-.7-3.64-2.31-3.64s-2.31,1.2-2.31,3.64v.55c0,2.46,.72,3.62,2.35,3.62s2.27-1.2,2.27-3.64Z"/><path class="h" d="M167.53,47.79v-.55c0-4.18,2.61-6.52,6.1-6.52s6.1,2.16,6.1,6.45v.52c0,4.19-2.4,6.65-6.17,6.65s-6.02-2.38-6.02-6.54Zm8.41-.04v-.54c0-2.42-.7-3.64-2.31-3.64s-2.31,1.2-2.31,3.64v.55c0,2.46,.72,3.62,2.35,3.62s2.27-1.2,2.27-3.64Z"/><path class="h" d="M181.05,47.79v-.55c0-4.18,2.61-6.52,6.1-6.52s6.1,2.16,6.1,6.45v.52c0,4.19-2.4,6.65-6.17,6.65s-6.02-2.38-6.02-6.54Zm8.41-.04v-.54c0-2.42-.7-3.64-2.31-3.64s-2.31,1.2-2.31,3.64v.55c0,2.46,.72,3.62,2.35,3.62s2.27-1.2,2.27-3.64Z"/></g><path class="h" d="M117.87,50.42c0,.78-.61,1.31-1.7,1.31-1.56,0-2.01-.78-2.1-1.71h-3.58c.11,2.5,1.56,4,4.41,4.34v1.97h2.19v-1.97c2.82-.33,4.41-2.14,4.41-4.32,0-2.91-1.9-3.7-5.05-4.11-1.65-.2-2.05-.54-2.05-1.28s.53-1.12,1.52-1.12c.83-.12,1.6,.46,1.72,1.28,0,.05,.01,.09,.01,.14h3.49c-.04-2.22-1.84-4.02-4.06-4.05v-2.02h-2.19v2.03c-2.53,.35-4.06,1.94-4.06,4.05,0,2.76,1.46,3.76,4.98,4.19,1.58,.22,2.08,.55,2.08,1.27Z"/></g></g></g><g id="d"/></svg>