<svg xmlns="http://www.w3.org/2000/svg" viewBox="0 0 200 90"><defs><style>.cls-1{fill:#fff;}.cls-2{fill:#00b624;}.cls-3{fill:#1a5336;}</style></defs><g id="FLT_ART_WORKS" data-name="FLT ART WORKS"><g id="fast"><g id="timer"><path id="white" class="cls-1" d="M136.75,48.61A35.35,35.35,0,1,1,75.31,24.78l2.77-2.71a35.16,35.16,0,0,1,18.24-8.44V11.8H90.44V6.08h21.92V11.8h-5.88v1.83a35.06,35.06,0,0,1,18.31,8.51l.65-.65-2-2,4-4,6.76,6.77-4,4-2-2-.61.62A35.23,35.23,0,0,1,136.75,48.61Z"/><path id="TD_Green" data-name="TD Green" class="cls-2" d="M101.94,17.43A32.29,32.29,0,1,1,69.65,49.72h0A32.35,32.35,0,0,1,101.94,17.43Zm29.38,32.28a29.38,29.38,0,1,0-29.39,29.37h0a29.4,29.4,0,0,0,29.38-29.37Z"/><path id="outline" class="cls-3" d="M127.55,24.85l.62-.62,2,2,4-4-6.77-6.76-4,4,2,2-.65.65a35.24,35.24,0,0,0-18.31-8.51V11.8h5.87V6.08H90.44V11.8h5.88v1.83a35.38,35.38,0,1,0,31.23,11.22ZM101.4,81a32.35,32.35,0,1,1,32.35-32.35A32.38,32.38,0,0,1,101.4,81Z"/><path id="outline-2" data-name="outline" class="cls-3" d="M101.4,77.9a29.31,29.31,0,1,1,29.31-29.31A29.35,29.35,0,0,1,101.4,77.9Zm0-55.62a26.31,26.31,0,1,0,26.31,26.31A26.34,26.34,0,0,0,101.4,22.28Z"/><path id="outline-3" data-name="outline" class="cls-3" d="M116.83,34.22,103.22,42.9a6.46,6.46,0,0,0-1.66-.22,6.58,6.58,0,1,0,6.58,6.57c0-.19,0-.37,0-.55ZM101.56,51.58a2.33,2.33,0,1,1,2.33-2.33A2.33,2.33,0,0,1,101.56,51.58Z"/><rect id="outline-4" data-name="outline" class="cls-3" x="45.86" y="35.45" width="16.55" height="3"/><rect id="outline-5" data-name="outline" class="cls-3" x="28.43" y="45.78" width="30.77" height="3"/><rect id="outline-6" data-name="outline" class="cls-3" x="41.28" y="56.12" width="21.13" height="3"/></g><path id="white-2" data-name="white" class="cls-1" d="M171.58,37.23l-.72-2a32,32,0,0,1-2-9.72c-.29-7.44-2.43-11.85-6.48-13.39V11A4.69,4.69,0,1,0,153,11v1.14c-5.24,2-6.24,8.37-6.48,13.38a27.35,27.35,0,0,1-1.95,9.68l-.78,2h10.22a3.62,3.62,0,0,0,7.24,0Z"/><path id="outline-7" data-name="outline" class="cls-3" d="M171.58,37.23l-.72-2a32,32,0,0,1-2-9.72c-.29-7.44-2.43-11.85-6.48-13.39V11A4.69,4.69,0,1,0,153,11v1.14c-5.24,2-6.24,8.37-6.48,13.38a27.35,27.35,0,0,1-1.95,9.68l-.78,2h10.22a3.62,3.62,0,0,0,7.24,0ZM156,11a1.69,1.69,0,1,1,3.38,0v.53c-.22,0-.44,0-.68,0h-2c-.24,0-.46,0-.69,0Zm-6.48,14.66c.46-9.83,3.88-11.16,7.17-11.16h2c3.33,0,6.77,1.33,7.16,11.15a34,34,0,0,0,1.47,8.6H148.14A31.52,31.52,0,0,0,149.56,25.64Z"/></g></g></svg>