<svg xmlns="http://www.w3.org/2000/svg" viewBox="0 0 200 90"><defs><style>.cls-1{fill:#fff;}.cls-2{fill:#1a5336;}.cls-3{fill:#00b624;}</style></defs><g id="FLT_ART_WORKS" data-name="FLT ART WORKS"><g id="intelligent"><path id="white" class="cls-1" d="M134.72,66.48a16.44,16.44,0,0,0,.92-1.7l.06-.12.3-.73c.06-.17.13-.34.19-.52s.14-.4.2-.6c.11-.38.21-.77.3-1.16l.06-.34c.06-.34.12-.69.16-1.05l0-.33a12.77,12.77,0,0,0,.08-1.38,14.88,14.88,0,0,0-16.84-14.81,14.25,14.25,0,0,0-3,.7V12.14h-48V77.79l4.77-3,6.45,3.91,6.58-4,6,4,6.12-3.93,6.32,4,6.53-4,5.25,3.12V72.64a13.57,13.57,0,0,0,1.89.53c.37.08.74.12,1.11.17a14.93,14.93,0,0,0,1.91.14c.46,0,.92,0,1.37-.07l.26,0c.43,0,.86-.11,1.28-.19l.27-.06q.54-.12,1-.27l.28-.08c.37-.12.73-.26,1.08-.4l.44-.19c.29-.12.57-.26.85-.41l.14-.06,10.8,10.93,5.4-5.44Z"/><g id="outline"><path class="cls-2" d="M75.58,54.36v3H107.2a14.85,14.85,0,0,1,.55-3Z"/><path class="cls-2" d="M117.18,72.64v5.21l-5.25-3.12-6.53,4-6.32-4L93,78.73l-6-4-6.58,4L74,74.82l-4.77,3V12.14h48v32.3a14.25,14.25,0,0,1,3-.7V9.14h-54V83.19L74,78.34l6.43,3.9,6.51-3.92,6,4,6.17-4,6.29,3.93,6.57-4,8.22,4.88V73.34c-.37,0-.74-.09-1.11-.17A13.57,13.57,0,0,1,117.18,72.64Z"/><path class="cls-2" d="M75.58,61.23v3h32.71a15.23,15.23,0,0,1-.88-3Z"/></g><path id="outline-2" data-name="outline" class="cls-2" d="M100.57,36.22c0-3.92-2.55-5-6.8-5.53C91.57,30.42,91,30,91,29s.69-1.51,2-1.51a2,2,0,0,1,2.34,1.9h4.69c-.29-3.26-2.15-5-5.46-5.44V21.21h-3v2.73c-3.41.46-5.46,2.61-5.46,5.46,0,3.7,2,5.06,6.7,5.63,2.13.3,2.8.75,2.8,1.71s-.82,1.77-2.28,1.77c-2.11,0-2.71-1-2.83-2.31H85.79c.13,3.37,2.09,5.39,5.91,5.83v2.66h3V42.05C98.45,41.62,100.57,39.17,100.57,36.22Z"/><circle id="TD_green" data-name="TD green" class="cls-3" cx="124.66" cy="58.54" r="10.13"/><path id="outline-3" data-name="outline" class="cls-2" d="M133.1,64.85a12.68,12.68,0,0,0-11-19v3a9.74,9.74,0,0,1,9.7,9.57,9.71,9.71,0,0,1-9.57,9.84h-.14A9.71,9.71,0,0,1,122,48.84h.14v-3h-.19a12.71,12.71,0,0,0,.18,25.41h.18a12.72,12.72,0,0,0,5.2-1.2L139.9,82.64l5.41-5.43Zm3.71,10.39-6.55-6.62,1.18-1.19L138,74.07Z"/></g></g></svg>