<svg id="FLAT_ART" data-name="FLAT ART" xmlns="http://www.w3.org/2000/svg" viewBox="0 0 200 90"><defs><style>.cls-1{fill:#e2e0e2;}.cls-2{fill:#1c1c1c;}.cls-3{fill:#fff;}.cls-4{fill:#00b624;}.cls-5{fill:none;stroke:#e2e0e2;stroke-miterlimit:10;stroke-width:2px;}</style></defs><rect class="cls-1" x="39.3" y="28.29" width="121.4" height="48.7"/><rect class="cls-2" x="34.94" y="79.01" width="130" height="5.13"/><rect class="cls-2" x="34.94" y="15.28" width="130" height="10.93"/><rect class="cls-3" x="85.97" y="5.49" width="27.94" height="25"/><path class="cls-4" d="M86,5.49v25h27.94v-25Zm18.34,19.58H97.8V13.35h3.27V23h3.15c2.17,0,3.08-1.51,3.08-5.38s-1-5-3.24-5H96.89V25.07H93.65V12.6H88.9V10.52h16.17c3.9,0,5.75,2,5.75,7.07C110.82,24.26,108.05,25.07,104.31,25.07Z"/><polyline class="cls-3" points="60.62 77.01 60.62 51.71 85.37 51.71 85.37 77.01"/><polyline class="cls-3" points="87.56 77.01 87.56 51.71 112.32 51.71 112.32 77.01"/><polyline class="cls-3" points="114.18 77.01 114.18 51.71 138.94 51.71 138.94 77.01"/><polyline class="cls-3" points="60.62 49.71 60.62 44.11 85.37 44.11 85.37 49.71"/><polyline class="cls-3" points="87.56 49.71 87.56 44.11 112.32 44.11 112.32 49.71"/><polyline class="cls-3" points="114.18 49.71 114.18 44.11 138.94 44.11 138.94 49.71"/><line class="cls-5" x1="100.31" y1="51.71" x2="100.31" y2="77.01"/><line class="cls-5" x1="95.44" y1="59.56" x2="95.44" y2="67.91"/><line class="cls-5" x1="105.15" y1="59.56" x2="105.15" y2="67.91"/><rect class="cls-3" x="85.97" y="5.49" width="27.94" height="25"/><path class="cls-4" d="M86,5.49v25h27.94v-25Zm18.34,19.58H97.8V13.35h3.27V23h3.15c2.17,0,3.08-1.51,3.08-5.38s-1-5-3.24-5H96.89V25.07H93.65V12.6H88.9V10.52h16.17c3.9,0,5.75,2,5.75,7.07C110.82,24.26,108.05,25.07,104.31,25.07Z"/></svg>