<svg xmlns="http://www.w3.org/2000/svg" viewBox="0 0 200 90">
  <g id="FLT_ART_WORKS" data-name="FLT ART WORKS">
    <path d="M126.98792,66.145l-.00159-.71875.4563-.55536.32293-.393.46289-.56342.71692-.13324,2.0459-.38025q.24482-.68133.55554-1.33594l-1.17224-1.65368-.42083-.59369.05908-.72528.0415-.50965.05951-.73126.51831-.51929,3.10236-3.10839.51513-.51612.72651-.06341.50775-.04438.715-.06237.59149.40637,1.71149,1.17584a14.08242,14.08242,0,0,1,1.33087-.55029l.34339-1.99982.12182-.70923.54572-.469.38507-.331.56213-.48321.74127-.00006,2.08167-.00031V6.33594h-97.19v61.17H126.991Z" style="fill: #e2e0e2"/>
    <path d="M108.56376,78.606l-1-9.07h-23l-1,8.74a4.27,4.27,0,0,1-1.17,2.46l-3.07,3.25h33.39l-3-2.86A4.18992,4.18992,0,0,1,108.56376,78.606Z" style="fill: #282828"/>
    <g>
      <path d="M79.64915,41.32041l5.78-4.39v16.47h-5.76Zm11.65,12.07h5.82v-15.61l-5.82-1.73Zm11.7,0h5.8v-22.69l-5.8,5.82Z" style="fill: #fff"/>
      <polyline points="76.289 41.11 89.379 30.85 101.279 34.71 113.829 22.2" style="fill: none;stroke: #282828;stroke-linecap: square;stroke-miterlimit: 10;stroke-width: 2px"/>
      <polyline points="107.459 20.98 114.849 20.98 114.849 28.37" style="fill: none;stroke: #282828;stroke-linecap: square;stroke-miterlimit: 10;stroke-width: 2px"/>
      <path d="M81.87915,41.32041l5.78-4.39v16.47h-5.76Zm11.66,12.07h5.81v-15.61l-5.82-1.73Zm11.69,0h5.81v-22.69l-5.81,5.76Z" style="fill: #00b624"/>
    </g>
    <path d="M153.77486,55.58575l-2.61218,1.85661a12.40921,12.40921,0,0,0-3.27469-1.312l-.60046-3.23082-.39305-.32294-4.36212.00057-.38511.331-.55219,3.2155a12.08962,12.08962,0,0,0-3.22647,1.33113l-2.71077-1.86241-.50777.04433-3.10235,3.10837-.04151.50968,1.88406,2.65783a12.70663,12.70663,0,0,0-1.34861,3.23453l-3.23082.60046-.32294.39305.00971,4.35663.331.38511L132.535,71.44a12.47245,12.47245,0,0,0,1.33113,3.22646l-1.86241,2.71077.05346.50229,3.10837,3.10235.50969.04152,2.61218-1.85662a12.47242,12.47242,0,0,0,3.28018,1.32116l.57479,3.14683.38392.32843,4.35663-.00971.39973-.32737.55219-3.21549a12.54753,12.54753,0,0,0,3.23559-1.33661l2.71078,1.86241.50227-.05345,3.10235-3.10838.04152-.50968-1.85661-2.61218a12.40867,12.40867,0,0,0,1.312-3.27469l3.23082-.60046.32843-.38392-.037-4.27807-.3365-.39423-3.2155-.55219a12.1103,12.1103,0,0,0-1.33661-3.23559l1.86241-2.71078-.04433-.50777-3.10837-3.10235Zm-3.68152,18.06033a7.59438,7.59438,0,1,1-.00958-10.74006l.00466.00465a7.58373,7.58373,0,0,1,.01533,10.725Z" style="fill: #282828"/>
  </g>
</svg>
