<?xml version="1.0" encoding="UTF-8"?><svg xmlns="http://www.w3.org/2000/svg" viewBox="0 0 200 90"><defs><style>.f,.g{fill:none;}.f,.g,.h{stroke-miterlimit:10;stroke-width:3px;}.f,.h{stroke:#1a5336;}.g{stroke:#1a5436;}.i{fill:#00b624;}.j,.h{fill:#fff;}.k{fill:#1a5336;}</style></defs><g id="a"/><g id="b"><g id="c"><g id="d"><rect class="j" x="89.43" y="21.61" width="21.09" height="4.3"/><rect class="i" x="91.36" y="23.19" width="20.26" height="3.97"/><rect class="f" x="88.45" y="20.57" width="22.79" height="6.59"/><polygon class="h" points="80.41 8.45 88.55 20.57 100.09 20.57 100.09 20.57 111.63 20.57 119.67 8.45 80.41 8.45"/><path class="h" d="M76.62,81.75c-4.12,0-7.47-3.34-7.47-7.47h0v-10.86c.01-2.2,.48-4.38,1.36-6.4l17.55-30.25h23.36l17.55,30.25c.88,2.02,1.35,4.2,1.36,6.4v10.85h0c0,4.12-3.34,7.47-7.47,7.47h-46.26Z"/><path class="k" d="M102.9,59.84c0,1.36-1.07,2.23-2.94,2.23-2.72,0-3.49-1.36-3.59-2.94h-6.08c.2,4.27,2.71,6.85,7.56,7.47v3.4h3.78v-3.38c4.89-.58,7.56-3.68,7.56-7.37,0-5.04-3.3-6.3-8.63-7.07-2.81-.29-3.49-.87-3.49-2.13s.88-1.96,2.62-1.96c1.46-.18,2.8,.87,2.97,2.33,0,.04,0,.07,.01,.11h6.02c-.39-4.17-2.72-6.4-6.99-6.98v-3.52h-3.92v3.52c-4.36,.58-6.99,3.3-6.99,6.98,0,4.66,2.52,6.5,8.53,7.18,2.69,.38,3.56,.91,3.56,2.13Z"/></g><g><path class="j" d="M177.5,44.45c.01,11.4-9.23,20.66-20.63,20.67h-.01c-11.41-.25-20.45-9.7-20.2-21.11,.24-11.05,9.15-19.96,20.2-20.2h0c11.39,.01,20.63,9.25,20.64,20.64Z"/><line class="g" x1="162.85" y1="35.98" x2="162.85" y2="56.17"/><polyline class="g" points="158.02 39.58 162.85 34.75 167.68 39.58"/><line class="g" x1="150.35" y1="53.19" x2="150.35" y2="33"/><polyline class="g" points="145.52 49.59 150.35 54.42 155.18 49.59"/><path class="k" d="M156.85,26.81c9.75,0,17.66,7.91,17.66,17.66,0,9.75-7.91,17.66-17.66,17.66-9.75,0-17.65-7.9-17.66-17.65,0-9.75,7.91-17.66,17.66-17.67h0m0-3h0c-11.41,.25-20.45,9.7-20.2,21.11,.24,11.05,9.15,19.96,20.2,20.2h0c11.41-.25,20.45-9.7,20.2-21.11-.24-11.05-9.15-19.96-20.2-20.2Z"/></g><g><path class="j" d="M42.7,23.76h0c-11.41,.25-20.45,9.7-20.2,21.11,.24,11.05,9.15,19.96,20.2,20.2h0c11.41-.25,20.45-9.7,20.2-21.11-.24-11.05-9.15-19.96-20.2-20.2Z"/><path class="k" d="M42.7,26.74c9.75,0,17.65,7.89,17.66,17.64,0,9.75-7.89,17.65-17.64,17.66-9.75,0-17.65-7.89-17.66-17.64,0-4.67,1.85-9.15,5.14-12.46,3.31-3.32,7.81-5.18,12.5-5.18h0m0-3h0c-11.41,.25-20.45,9.7-20.2,21.11,.24,11.05,9.15,19.96,20.2,20.2h0c11.41-.25,20.45-9.7,20.2-21.11-.24-11.05-9.15-19.96-20.2-20.2Z"/><rect class="k" x="34.05" y="42.99" width="17.08" height="12.19"/><path class="f" d="M48.04,43.79v-4.42c-.13-3.01-2.67-5.34-5.68-5.21-2.83,.12-5.09,2.39-5.21,5.21v4.57"/></g></g></g><g id="e"/></svg>