<?xml version="1.0" encoding="utf-8"?>
<!-- Generator: Adobe Illustrator 26.0.3, SVG Export Plug-In . SVG Version: 6.00 Build 0)  -->
<svg version="1.1" id="Layer_1" xmlns="http://www.w3.org/2000/svg" xmlns:xlink="http://www.w3.org/1999/xlink" x="0px" y="0px"
	 viewBox="0 0 320 180" style="enable-background:new 0 0 320 180;" xml:space="preserve">
<style type="text/css">
	.st0{fill:#FFFFFF;}
	.st1{fill:none;stroke:#1A5336;stroke-width:3.5;stroke-linecap:square;stroke-miterlimit:10;}
	.st2{fill:#1A5336;}
	.st3{fill:#00B624;}
	.st4{fill:none;stroke:#1A5336;stroke-width:3.5;stroke-miterlimit:10;}
	.st5{fill:#FFFFFF;stroke:#1A5336;stroke-width:3.5;stroke-miterlimit:10;}
</style>
<g>
	<g>
		<path class="st0" d="M192.2,153.9H87.9c-3.9,0-7-3.1-7-7V85.7c0-3.9,3.1-7,7-7h104.3c3.9,0,7,3.1,7,7v61.2
			C199.2,150.8,196,153.9,192.2,153.9z"/>
		<path class="st1" d="M192.2,152.2H87.9c-2.9,0-5.3-2.4-5.3-5.3V85.7c0-2.9,2.4-5.3,5.3-5.3h104.3c2.9,0,5.3,2.4,5.3,5.3v61.2
			C197.4,149.8,195.1,152.2,192.2,152.2z"/>
		<g>
			<rect x="83" y="98.2" class="st2" width="114" height="15.6"/>
		</g>
	</g>
	<g id="loanInterestRateOptions_00000151511890476398682780000014261375047951140287_">
		<g id="loan_00000097460907142123577130000008490788054682047616_">
			<rect x="89.9" y="51.3" class="st0" width="35.4" height="7.2"/>
			<rect x="91.7" y="52.5" class="st3" width="34" height="6.7"/>
			<rect x="88.2" y="49.5" class="st4" width="38.3" height="11.1"/>
			<polygon class="st5" points="74.7,29.2 88.4,49.5 107.8,49.5 107.8,49.5 127.1,49.5 140.7,29.2 			"/>
			<path class="st5" d="M68.4,152.3c-6.9,0-12.5-5.6-12.5-12.5c0,0,0,0,0,0l0,0v-18.2c0-3.7,0.8-7.4,2.3-10.7l29.5-50.8h39.2
				l29.5,50.8c1.5,3.4,2.3,7,2.3,10.7v18.2l0,0c0,6.9-5.6,12.5-12.5,12.5L68.4,152.3z"/>
			<path class="st2" d="M112.5,115.5c0,2.3-1.8,3.7-4.9,3.7c-4.6,0-5.9-2.3-6-4.9H91.3c0.3,7.2,4.6,11.5,12.7,12.5v5.7h6.3v-5.7
				c8.2-1,12.7-6.2,12.7-12.4c0-8.5-5.5-10.6-14.5-11.9c-4.7-0.5-5.9-1.5-5.9-3.6s1.5-3.3,4.4-3.3c2.5-0.3,4.7,1.5,5,3.9
				c0,0.1,0,0.1,0,0.2h10.1c-0.7-7-4.6-10.7-11.7-11.7v-5.9h-6.6v5.9c-7.3,1-11.7,5.5-11.7,11.7c0,7.8,4.2,10.9,14.3,12.1
				C111,112.5,112.5,113.4,112.5,115.5z"/>
		</g>
	</g>
</g>
<g id="FLT_ART_WORKS">
	<g>
		<g>
			<rect x="216.1" y="30.7" class="st0" width="43" height="61.6"/>
			<rect x="234.3" y="55.5" class="st2" width="6.8" height="6.8"/>
			<rect x="245.4" y="55.5" class="st2" width="6.8" height="6.8"/>
			<rect x="223.1" y="55.5" class="st2" width="6.8" height="6.8"/>
			<rect x="234.3" y="66" class="st2" width="6.8" height="6.8"/>
			<rect x="245.4" y="66" class="st2" width="6.8" height="6.8"/>
			<rect x="223.1" y="66" class="st2" width="6.8" height="6.8"/>
			<rect x="234.3" y="76.6" class="st2" width="6.8" height="6.8"/>
			<rect x="245.4" y="76.6" class="st2" width="6.8" height="6.8"/>
			<rect x="223.1" y="76.6" class="st2" width="6.8" height="6.8"/>
			<rect x="216.1" y="29.1" class="st4" width="43" height="64.2"/>
			<rect x="223.1" y="39.1" class="st2" width="29.2" height="9.7"/>
		</g>
	</g>
</g>
</svg>
