<?xml version="1.0" encoding="UTF-8"?><svg xmlns="http://www.w3.org/2000/svg" viewBox="0 0 200 90"><defs><style>.j{stroke-width:3px;}.j,.k{fill:none;stroke:#1a5336;stroke-miterlimit:10;}.l{fill:#00b624;}.m{fill:#fff;}.n{fill:#1a5336;}.k{stroke-width:2.88px;}</style></defs><g id="a"/><g id="b"><g id="c"><g id="d"><polygon class="m" points="94.22 7.78 56.43 7.78 56.43 81.22 112.59 81.22 112.59 26.03 94.22 7.78"/><line class="j" x1="78.2" y1="39.26" x2="78.2" y2="70.38"/><line class="j" x1="66.32" y1="49.73" x2="102.7" y2="49.73"/><rect class="j" x="67.69" y="39.52" width="33.64" height="31.39"/><line class="j" x1="66.32" y1="60.12" x2="102.7" y2="60.12"/><polyline class="n" points="92.84 10.12 92.84 27.3 111.09 27.3"/><polyline class="j" points="111.09 40.71 111.09 79.72 57.93 79.72 57.93 9.28 93.61 9.28 111.09 26.65 111.09 45.58"/></g><g><path id="e" class="m" d="M133.65,81.23c-7.44,0-13.5-6.06-13.5-13.5s6.06-13.5,13.5-13.5,13.5,6.06,13.5,13.5-6.06,13.5-13.5,13.5Z"/><circle class="l" cx="135.03" cy="68.03" r="10.62"/><circle class="j" cx="133.65" cy="67.73" r="12"/><polyline class="k" points="127.35 67.61 131.73 71.85 139.86 63.69"/></g></g><g id="f"><g id="g"><polygon class="m" points="94.22 7.78 56.43 7.78 56.43 81.22 112.59 81.22 112.59 26.03 94.22 7.78"/><line class="j" x1="78.2" y1="39.26" x2="78.2" y2="70.38"/><line class="j" x1="66.32" y1="49.73" x2="102.7" y2="49.73"/><rect class="j" x="67.69" y="39.52" width="33.64" height="31.39"/><line class="j" x1="66.32" y1="60.12" x2="102.7" y2="60.12"/><polyline class="n" points="92.84 10.12 92.84 27.3 111.09 27.3"/><polyline class="j" points="111.09 40.71 111.09 79.72 57.93 79.72 57.93 9.28 93.61 9.28 111.09 26.65 111.09 45.58"/></g><g><path id="h" class="m" d="M133.65,81.23c-7.44,0-13.5-6.06-13.5-13.5s6.06-13.5,13.5-13.5,13.5,6.06,13.5,13.5-6.06,13.5-13.5,13.5Z"/><circle class="l" cx="135.03" cy="68.03" r="10.62"/><circle class="j" cx="133.65" cy="67.73" r="12"/><polyline class="k" points="127.35 67.61 131.73 71.85 139.86 63.69"/></g></g></g><g id="i"/></svg>