<svg xmlns="http://www.w3.org/2000/svg" viewBox="0 0 200 90"><title>personalLoan</title><g id="FLT_ART_WORKS" data-name="FLT ART WORKS"><path d="M170.71,45.31v5.62a5.37,5.37,0,0,1-5.36,5.36H141.43a5.38,5.38,0,0,1-5.37-5.36V45.31a9.8,9.8,0,0,1,.83-3.9l.08-.16L146,25.6V22.86l-5.47-8.15h25.92l-6,9v1.55l9.36,16.17A9.75,9.75,0,0,1,170.71,45.31Z" style="fill:#fff"/><path d="M132.42,28.17c0,1.31-4.25,2.61-9.6,2.61s-9.6-1.3-9.6-2.61,4.25-2.4,9.6-2.4S132.42,26.87,132.42,28.17Z" style="fill:#1a5336"/><path d="M122.82,37.32c4.83,0,8.29-1.14,9.58-2.11V30.49c-2.21,1.23-5.92,1.92-9.57,1.92s-7.41-.7-9.61-1.94V35.2C114.5,36.17,118,37.32,122.82,37.32Z" style="fill:#1a5336"/><path d="M132.4,48.36V43.68a22.68,22.68,0,0,1-9.58,1.83c-3.63,0-7.34-.66-9.6-1.85v4.69c1.28,1,4.75,2.12,9.6,2.12S131.11,49.33,132.4,48.36Z" style="fill:#1a5336"/><path d="M113.22,37.09v4.68c1.28,1,4.75,2.12,9.6,2.12s8.29-1.14,9.58-2.1V37.1a22.52,22.52,0,0,1-9.58,1.84A22.57,22.57,0,0,1,113.22,37.09Z" style="fill:#1a5336"/><path d="M122.83,30.6c5.26,0,8.73-1.39,9.56-2.29l0-.14c0-1.3-4.25-2.4-9.6-2.4s-9.6,1.1-9.6,2.4l0,.1C114,29.17,117.51,30.6,122.83,30.6Z" style="fill:#1a5336"/><path d="M122.82,52.09a22.57,22.57,0,0,1-9.6-1.85v4c0,1.33,4.28,2.66,9.59,2.66s9.59-1.33,9.59-2.66v-4A22.52,22.52,0,0,1,122.82,52.09Z" style="fill:#1a5336"/><path d="M111.65,48.39V43.67c-2.21,1.23-5.92,1.92-9.57,1.92s-7.41-.7-9.61-2v4.74c1.28,1,4.75,2.12,9.6,2.12S110.36,49.36,111.65,48.39Z" style="fill:#1a5336"/><path d="M102.08,43.78c5.27,0,8.73-1.39,9.56-2.29l0-.14c0-1.3-4.25-2.4-9.6-2.4s-9.6,1.1-9.6,2.4l0,.1C93.27,42.35,96.76,43.78,102.08,43.78Z" style="fill:#1a5336"/><path d="M102.07,52.12a22.57,22.57,0,0,1-9.6-1.85v4.15c0,1.33,4.28,2.65,9.59,2.65s9.59-1.32,9.59-2.65V50.28A22.52,22.52,0,0,1,102.07,52.12Z" style="fill:#1a5336"/><path d="M111.67,41.35c0,1.31-4.25,2.61-9.6,2.61s-9.6-1.3-9.6-2.61,4.25-2.4,9.6-2.4S111.67,40.05,111.67,41.35Z" style="fill:#1a5336"/><rect x="150.02" y="23.57" width="10.48" height="2.06" style="fill:#00b624"/><path d="M155,43.45c0,.7-.55,1.16-1.5,1.16-1.41,0-1.81-.71-1.86-1.51H148.5c.1,2.21,1.41,3.56,3.92,3.86v1.76h2V47c2.51-.3,3.91-1.9,3.91-3.81,0-2.61-1.7-3.26-4.46-3.66-1.46-.15-1.81-.45-1.81-1.1s.46-1,1.36-1a1.38,1.38,0,0,1,1.55,1.26H158c-.2-2.16-1.4-3.31-3.61-3.62v-1.8h-2.06V35c-2.25.31-3.61,1.71-3.61,3.62,0,2.4,1.31,3.36,4.42,3.71C154.57,42.55,155,42.8,155,43.45Z" style="fill:#1a5336"/><line x1="147.55" y1="26.55" x2="147.55" y2="22.01" style="fill:none;stroke:#1a5336;stroke-miterlimit:10;stroke-width:3px"/><line x1="159.03" y1="22.57" x2="159.03" y2="27.54" style="fill:none;stroke:#1a5336;stroke-miterlimit:10;stroke-width:3px"/><polygon points="143.39 16.21 147.6 22.48 153.57 22.48 159.54 22.48 163.7 16.21 143.39 16.21" style="fill:none;stroke:#1a5336;stroke-miterlimit:10;stroke-width:3px"/><path d="M141.43,54.79a3.86,3.86,0,0,1-3.86-3.86V45.31a8.33,8.33,0,0,1,.7-3.31l9.08-15.65h12.09L168.52,42a8.33,8.33,0,0,1,.7,3.31v5.62a3.87,3.87,0,0,1-3.86,3.86Z" style="fill:none;stroke:#1a5336;stroke-miterlimit:10;stroke-width:3px"/><rect x="54.55" y="43.19" width="14.57" height="20.21" style="fill:#fff"/><rect x="54.55" y="43.19" width="14.57" height="20.21" style="fill:none;stroke:#1a5336;stroke-miterlimit:10;stroke-width:3px"/><path d="M81,29.34A19.15,19.15,0,1,1,61.84,10.19,19.15,19.15,0,0,1,81,29.34Z" style="fill:#fff"/><path d="M81,29.34A19.15,19.15,0,1,1,61.84,10.19,19.15,19.15,0,0,1,81,29.34Z" style="fill:none;stroke:#1a5336;stroke-miterlimit:10;stroke-width:3px"/><circle cx="55.08" cy="30.84" r="1.93" style="fill:#1a5336"/><circle cx="68.59" cy="30.84" r="1.93" style="fill:#1a5336"/><path d="M71,16.91s-7.57,10.3-27.86,10.3a18.76,18.76,0,0,1,37.45,0C80.59,27.61,72.5,24,71,16.91Z" style="fill:#1a5336"/><path d="M97.53,80.26l-.09-.85c-2.26-18-12.18-26.2-26.41-26.2a10.59,10.59,0,0,1-18.18,0c-14.21,0-24.3,8.08-26.6,26.16,0,.29-.07.59-.1.89Z" style="fill:#fff"/><path d="M97.53,80.26l-.09-.85c-2.26-18-12.18-26.2-26.41-26.2a10.59,10.59,0,0,1-18.18,0c-14.21,0-24.3,8.08-26.6,26.16,0,.29-.07.59-.1.89Z" style="fill:none;stroke:#1a5336;stroke-miterlimit:10;stroke-width:3px"/></g></svg>