<svg xmlns="http://www.w3.org/2000/svg" viewBox="0 0 200 90">
  <g id="FLT_ART_WORKS" data-name="FLT ART WORKS">
    <g>
      <g>
        <g>
          <path d="M105.96994,22.14726s-10.08652.6588-17.01766-2.27075c-7.51128-3.17476-14.093-10.20216-14.093-10.20216s-6.58173,7.0274-14.093,10.20216c-6.93114,2.92955-17.01766,2.27075-17.01766,2.27075S42.74405,43.78374,50.507,60.221,75.04006,80.32565,75.04006,80.32565,91.44855,76.65819,99.2115,60.221,105.96994,22.14726,105.96994,22.14726Z" style="fill: #fff"/>
          <path d="M75.65453,76.58316C72.32854,75.572,60.66988,71.2526,54.8943,59.021c-5.30607-11.23407-6.25869-25.28924-6.38525-32.07186,4.32624-.11023,9.88952-.69813,14.49337-2.64283a48.16165,48.16165,0,0,0,12.467-8.27143A48.13543,48.13543,0,0,0,87.93783,24.305c4.6025,1.94606,10.16441,2.534,14.48929,2.64419-.132,6.79351-1.09007,20.87181-6.38117,32.07186A33.82834,33.82834,0,0,1,75.65453,76.58316Z" style="fill: none;stroke: #00b624;stroke-miterlimit: 10;stroke-width: 4px"/>
          <path d="M105.96994,22.14726s-10.08652.6588-17.01766-2.27075c-7.51128-3.17476-14.093-10.20216-14.093-10.20216s-6.58173,7.0274-14.093,10.20216c-6.93114,2.92955-17.01766,2.27075-17.01766,2.27075S42.74405,43.78374,50.507,60.221,75.04006,80.32565,75.04006,80.32565,91.44855,76.65819,99.2115,60.221,105.96994,22.14726,105.96994,22.14726Z" style="fill: none;stroke: #1a5336;stroke-miterlimit: 10;stroke-width: 3px"/>
          <path d="M74.99872,73.069c-3.75667-1.25176-13.24018-5.33634-18.19147-15.82263-4.45466-9.4318-5.70371-21.08686-6.02754-28.22467a40.75361,40.75361,0,0,0,12.69865-2.728,47.82923,47.82923,0,0,0,11.38022-7.15413,47.884,47.884,0,0,0,11.38021,7.15413,40.77,40.77,0,0,0,12.7,2.728c-.32247,7.13645-1.57287,18.79287-6.02754,28.22331C88.00351,67.64017,78.62341,71.80366,74.99872,73.069Z" style="fill: #fff;stroke: #1a5336;stroke-miterlimit: 10;stroke-width: 3px"/>
        </g>
        <g>
          <rect x="65.75997" y="44.62066" width="17.89856" height="12.77233" style="fill: #1a5336"/>
          <path d="M80.41408,45.4534v-4.672a5.71023,5.71023,0,0,0-11.42046-.00854v4.72381" style="fill: none;stroke: #1a5336;stroke-miterlimit: 10;stroke-width: 3px"/>
        </g>
      </g>
      <g>
        <rect x="112.76649" y="53.28031" width="43.5274" height="27.20696" rx="3" style="fill: #fff"/>
        <rect x="112.76649" y="53.28031" width="43.5274" height="27.20696" rx="3" style="fill: none;stroke: #1a5336;stroke-linecap: square;stroke-miterlimit: 10;stroke-width: 3px"/>
        <rect x="112.87627" y="59.89174" width="43.41761" height="5.93359" style="fill: #1a5336"/>
      </g>
    </g>
  </g>
</svg>
