<svg xmlns="http://www.w3.org/2000/svg" viewBox="0 0 200 90"><defs><style>.cls-1{fill:#00b624;}.cls-2{fill:#1a5336;}</style></defs><title>sustainabilityLeader_1</title><g id="FLT_ART_WORKS" data-name="FLT ART WORKS"><path class="cls-1" d="M122.22,32.68A9.37,9.37,0,1,1,109,19.41s6.11-6.76,19.69-6.39C128.68,13,130.37,24.63,122.22,32.68Z"/><path class="cls-1" d="M92.64,41.15A6.7,6.7,0,0,0,99.27,29.5S93.79,26,84.49,28.8C84.49,28.8,85.5,37.13,92.64,41.15Z"/><path class="cls-2" d="M130.71,10.08l-.18-1.25-1.27,0c-16-.45-23.32,7.45-23.57,7.73a12.12,12.12,0,0,0-3.59,8.61c0,.44,0,.88.07,1.3-.22-.15-.45-.3-.69-.44s-7.3-4.54-19-1l-1.21.37.16,1.25C81.51,27,82.87,37.4,92,42.53a9.48,9.48,0,0,0,4.7,1.25A9.48,9.48,0,0,0,103,41.37l0,8.27,3,0,.08-13.17c.24-.54.5-1.1.81-1.67a12.12,12.12,0,0,0,7.42,2.55h0a12.15,12.15,0,0,0,8.61-3.56C132.64,24.2,130.79,10.65,130.71,10.08ZM98.42,40.55a6.47,6.47,0,0,1-5-.63h0c-6-3.41-8.14-9.74-8.78-12.43,9.47-2.42,14.95.9,15.24,1.08a6.52,6.52,0,0,1,3.18,6.92,19.49,19.49,0,0,0-8.95-3.61l-.42,3a16.41,16.41,0,0,1,8.09,3.43A6.48,6.48,0,0,1,98.42,40.55Zm22.38-8.87h0a9.13,9.13,0,0,1-6.49,2.69h0a9.19,9.19,0,0,1-5.85-2.12,22.48,22.48,0,0,1,9.69-7.8l-1.18-2.76a25.5,25.5,0,0,0-10.52,8.21,9.17,9.17,0,0,1,1.44-11.3c.06-.07,6.37-6.76,20-6.82C128,15.19,127.81,24.75,120.8,31.68Z"/><path class="cls-2" d="M130,41.83c-1.55-1.5-4.27-2.49-8.36,1.25-1.29,1.18-5.12,4.62-6.83,6.16a5.7,5.7,0,0,0-2.67-.57c-2,0-20.48-.09-20.65-.09h0a10.62,10.62,0,0,0-7.84,3.07l-9.24,9.7-1.5-1.51-6.4,6.4L81.21,81l6.39-6.39-1.3-1.3a22.36,22.36,0,0,1,11.44-4c1.84-.11,3.44-.18,4.85-.24,5.16-.22,8-.34,10.27-2.09,1.89-1.46,9-9,15-15.39l1.29-1.37C132,47.26,132.29,44.05,130,41.83Zm-3,6.31-1.32,1.4C122.52,52.9,113,63.11,111,64.6c-1.51,1.17-3.87,1.27-8.57,1.47-1.42.06-3,.13-4.9.24a24.64,24.64,0,0,0-13.39,4.83L76.5,63.47l9.31-9.77a7.61,7.61,0,0,1,5.57-2.12c.76,0,18.7.13,20.8.09h.09c1.65,0,2.06.93,2.1,1.72a2.46,2.46,0,0,1-.52,1.84,2.6,2.6,0,0,1-1.88.65c-2.55,0-11.7.21-12.09.22l.07,3c.09,0,9.51-.2,12-.22a5.42,5.42,0,0,0,4.05-1.6,5.33,5.33,0,0,0,1.33-4.07,4.92,4.92,0,0,0-.48-1.83c1.77-1.59,5.48-4.93,6.74-6.09,2.88-2.62,3.82-1.73,4.27-1.3C129.22,45.25,128.12,47,127,48.14Z"/></g></svg>